<svg width="20" height="20" fill="none" xmlns="http://www.w3.org/2000/svg"><g clip-path="url('#clip0_12_5257')"><rect x="-2.602" y=".67" width="25.2" height="18" rx="1.8" fill="#fff"/><mask id="mask0_12_5257" style="mask-type:luminance" maskUnits="userSpaceOnUse" x="-3" y="0" width="26" height="19"><rect x="-2.602" y=".67" width="25.2" height="18" rx="1.8" fill="#fff"/></mask><g mask="url('#mask0_12_5257')"><path fill="#F1361D" d="M1 .67h25.2v18H1z"/><path fill-rule="evenodd" clip-rule="evenodd" d="m9.668 5.196.872.148.653.596.149-.872.595-.654-.871-.148-.654-.596-.149.872-.595.654Zm2.335 3.048.755-.46.884.02-.46-.755.02-.884-.755.46-.884-.02.46.755-.02.884Zm-1.024 4.935-.74.485-.01-.884-.485-.739.884-.01.739-.486.01.884.486.74-.884.01Zm.64-2.286.88-.097.792.392-.098-.879.392-.792-.879.097-.792-.392.097.879-.392.792ZM6.6 9.809l-2.116 1.508.78-2.478-2.088-1.547 2.599-.023.825-2.464.825 2.464 2.599.023L7.935 8.84l.781 2.478L6.6 9.81Z" fill="#FFDC42"/></g></g><rect x=".75" y=".42" width="18.5" height="18.5" rx="9.25" stroke="#F3F3F3" stroke-width=".5"/><defs><clipPath id="clip0_12_5257"><rect x="1" y=".67" width="18" height="18" rx="9" fill="#fff"/></clipPath></defs></svg>