<svg width="13" height="13" fill="none" xmlns="http://www.w3.org/2000/svg"><path opacity=".5" d="m6.35 7.4-5.075 5.075a.736.736 0 0 1-.512.212.69.69 0 0 1-.538-.212A.72.72 0 0 1 0 11.95c0-.2.075-.375.225-.525L5.3 6.35.225 1.275A.737.737 0 0 1 .013.762.69.69 0 0 1 .225.225.72.72 0 0 1 .75 0c.2 0 .375.075.525.225L6.35 5.3 11.425.225a.74.74 0 0 1 .513-.213.693.693 0 0 1 .537.213.72.72 0 0 1 .225.525.72.72 0 0 1-.225.525L7.4 6.35l5.075 5.075a.736.736 0 0 1 .212.512.69.69 0 0 1-.212.538.72.72 0 0 1-.525.225.72.72 0 0 1-.525-.225L6.35 7.4Z" fill="#16103E"/></svg>