<svg width="20" height="20" fill="none" xmlns="http://www.w3.org/2000/svg"><g clip-path="url('#clip0_12_5286')"><path fill-rule="evenodd" clip-rule="evenodd" d="M1 5.22h28V-.114H1V5.22ZM1 19.886h28v-5.333H1v5.333Z" fill="#DD172C"/><path fill-rule="evenodd" clip-rule="evenodd" d="M1 14.553h28V5.22H1v9.333Z" fill="#FFD133"/><path fill-rule="evenodd" clip-rule="evenodd" d="M8.332 9.22h1.333v.666H8.332V9.22Z" fill="#FFEDB1"/><path d="M7.06 9.247a.333.333 0 0 1 .333-.36h1.884c.195 0 .348.166.332.36l-.171 2.055a1 1 0 0 1-.997.917h-.213a1 1 0 0 1-.996-.917L7.06 9.247Z" stroke="#A41517" stroke-width=".667"/><path fill-rule="evenodd" clip-rule="evenodd" d="M7 9.886h2.667v.667H9l-.667 1.333-.666-1.333H7v-.667Z" fill="#A41517"/><rect x="5" y="7.886" width="1.333" height="4.667" rx=".667" fill="#A41517"/><rect x="10.332" y="7.886" width="1.333" height="4.667" rx=".667" fill="#A41517"/><path d="M7 7.62c0-.59.478-1.067 1.067-1.067H8.6c.59 0 1.067.477 1.067 1.066 0 .148-.12.267-.267.267H7.267A.267.267 0 0 1 7 7.62Z" fill="#A41517"/></g><rect x=".75" y=".636" width="18.5" height="18.5" rx="9.25" stroke="#F3F3F3" stroke-width=".5"/><defs><clipPath id="clip0_12_5286"><rect x="1" y=".886" width="18" height="18" rx="9" fill="#fff"/></clipPath></defs></svg>