<svg width="170" height="30" fill="none" xmlns="http://www.w3.org/2000/svg"><path d="m33.468 19.809 3.07-1.817c.719 1.817 2.09 2.79 4.18 2.79 2.025 0 2.94-.779 2.94-1.946 0-.649-.262-1.168-.85-1.492-.587-.39-1.567-.779-3.07-1.168-1.632-.519-2.612-.908-3.788-1.686-1.11-.844-1.698-2.076-1.698-3.763 0-1.621.588-2.983 1.764-3.891 1.175-.973 2.612-1.492 4.245-1.492 2.94 0 5.29 1.492 6.531 4.086l-3.004 1.752c-.718-1.557-1.894-2.336-3.527-2.336-1.502 0-2.417.779-2.417 1.817 0 .583.262 1.037.719 1.427.523.324 1.437.713 2.743 1.167l1.241.39c.261.064.653.259 1.176.454.522.194.914.389 1.175.518.523.325 1.372.973 1.698 1.622.392.649.654 1.557.654 2.595 0 1.686-.654 2.983-1.83 4.021-1.24.973-2.808 1.492-4.767 1.492-3.592-.065-6.14-1.816-7.184-4.54ZM49.535 23.894V4.954h3.396v18.94h-3.396ZM62.01 24.284c-1.96 0-3.592-.648-4.898-1.946-1.307-1.297-1.96-2.984-1.96-4.865 0-1.946.653-3.502 1.96-4.864 1.306-1.363 3.004-2.011 4.898-2.011 1.894 0 3.592.648 4.899 2.01 1.306 1.298 2.024 2.92 2.024 4.865 0 1.946-.653 3.568-2.025 4.865-1.306 1.297-2.939 1.946-4.898 1.946Zm0-3.308c1.045 0 1.829-.324 2.547-1.038.653-.648 1.045-1.557 1.045-2.594 0-1.038-.326-1.882-1.045-2.595-.653-.649-1.502-1.038-2.547-1.038-1.045 0-1.829.325-2.547 1.038-.653.649-.98 1.557-.98 2.595 0 1.037.327 1.88.98 2.594.718.714 1.567 1.038 2.547 1.038ZM78.535 14.165h-2.939v5.384c0 1.427 1.045 1.427 2.94 1.297v3.049c-4.638.518-6.336-.779-6.336-4.346v-5.384h-2.286v-3.243H72.2V8.326l3.396-1.038v3.633h2.94v3.243ZM83.566 18.77c.457 1.622 1.698 2.465 3.657 2.465 1.307 0 2.286-.454 2.94-1.297l2.743 1.557c-1.307 1.816-3.2 2.79-5.683 2.79-2.155 0-3.918-.65-5.225-1.947-1.306-1.297-1.96-2.919-1.96-4.93 0-1.946.654-3.567 1.96-4.864 1.306-1.298 2.94-1.946 4.964-1.946 1.894 0 3.527.648 4.703 1.946 1.24 1.297 1.894 2.918 1.894 4.864 0 .454-.066.909-.13 1.363h-9.863Zm6.662-2.594c-.392-1.751-1.698-2.595-3.266-2.595-1.829 0-3.004.973-3.396 2.595h6.662ZM105.769 10.919h3.265v12.324c0 2.011-.653 3.503-2.024 4.606-1.307 1.038-2.939 1.556-4.834 1.556-2.808 0-5.029-1.102-6.204-3.178l2.873-1.622c.654 1.233 1.829 1.817 3.397 1.817 2.09 0 3.396-1.168 3.396-3.179v-1.427c-.98 1.297-2.351 1.946-4.18 1.946-1.829 0-3.396-.649-4.637-1.946-1.241-1.297-1.83-2.854-1.83-4.735 0-1.881.654-3.373 1.895-4.67 1.241-1.297 2.809-1.946 4.637-1.946 1.829 0 3.201.649 4.18 1.946v-1.492h.066Zm-1.111 3.762c-.653-.649-1.567-1.038-2.612-1.038-1.045 0-1.96.324-2.613 1.038a3.458 3.458 0 0 0-1.045 2.53c0 2.076 1.568 3.567 3.658 3.567s3.657-1.491 3.657-3.567c.066-1.038-.326-1.881-1.045-2.53ZM115.37 13.191c.653-1.686 2.22-2.464 3.984-2.464v3.762c-1.045-.13-1.959.065-2.743.648-.784.52-1.176 1.427-1.176 2.66v6.227h-3.396V11.05h3.396v2.14h-.065ZM130.979 10.92h3.396v12.973h-3.396v-1.556c-1.045 1.297-2.417 1.88-4.245 1.88-1.764 0-3.266-.648-4.507-1.945-1.241-1.297-1.829-2.984-1.829-4.865 0-1.946.653-3.503 1.829-4.865 1.241-1.297 2.743-2.01 4.507-2.01 1.828 0 3.265.648 4.245 1.88V10.92Zm-3.658 10.184c1.045 0 1.894-.324 2.613-1.038.718-.713 1.045-1.556 1.045-2.66 0-1.037-.327-1.945-1.045-2.594-.653-.713-1.568-1.037-2.613-1.037s-1.894.324-2.612 1.037c-.653.649-1.045 1.557-1.045 2.595 0 1.038.326 1.946 1.045 2.66.718.648 1.567 1.037 2.612 1.037ZM144.762 14.165h-2.939v5.384c0 1.427 1.045 1.427 2.939 1.297v3.049c-4.638.518-6.336-.779-6.336-4.346v-5.384h-2.286v-3.243h2.286V8.326l3.397-1.038v3.633h2.939v3.243ZM153.123 24.284c-1.959 0-3.592-.648-4.898-1.946-1.306-1.297-1.96-2.984-1.96-4.865 0-1.946.654-3.502 1.96-4.864 1.306-1.298 3.004-2.011 4.898-2.011 1.96 0 3.593.648 4.899 2.01 1.306 1.298 2.025 2.92 2.025 4.865 0 1.946-.654 3.568-2.025 4.865-1.372 1.297-3.005 1.946-4.899 1.946Zm0-3.308c1.045 0 1.829-.324 2.548-1.038.718-.713 1.045-1.557 1.045-2.594 0-1.038-.327-1.882-1.045-2.595-.654-.649-1.503-1.038-2.548-1.038-1.045 0-1.828.325-2.547 1.038-.653.649-.98 1.557-.98 2.595 0 1.037.327 1.88.98 2.594s1.502 1.038 2.547 1.038ZM165.596 13.191c.653-1.686 2.221-2.464 3.984-2.464v3.762c-1.045-.13-1.959.065-2.743.648-.783.52-1.175 1.427-1.175 2.66v6.227h-3.397V11.05h3.397v2.14h-.066Z" fill="#16103E"/><path d="M25.63 5.084v.324c-.065.779-.13 1.622-.261 2.4-.13.779-.98 1.297-1.698.973-1.633-.584-3.397-1.038-5.095-1.362-3.33-.584-6.727-.714-10.123-.195-.131 0-.327.065-.458.065-1.11.195-2.22.39-3.265.649-1.11.324-1.503 1.167-1.568 2.01 0 1.038.457 2.011 1.241 2.595l.065.065c-.326-.26-.718-.519-1.11-.843C1.464 10.143.223 7.873.028 5.408v-.324c0-1.362.848-2.595 2.024-3.114.065 0 .13-.065.196-.065h.065C7.93-.04 13.808-.365 19.36.803c1.306.26 2.547.648 3.788 1.038.13.064.261.064.392.13 1.24.518 2.09 1.686 2.09 3.113Z" fill="url('#paint0_linear_7_14621')"/><path d="M15.964 13.516c0 .584-.13 1.103-.392 1.557 0 0 0 .065-.065.065-.392.778-.85 1.557-1.372 2.27-.522-.195-1.11-.324-1.633-.519-.783-.26-1.502-.584-2.285-.908-1.96-.908-3.92-1.946-5.683-3.243-.065-.065-.13-.065-.13-.13l-.066-.065c-.783-.648-1.24-1.557-1.24-2.594.065-.844.457-1.687 1.567-2.011 1.045-.26 2.155-.52 3.266-.649.457.324.914.649 1.436.908a40.92 40.92 0 0 0 4.115 2.14c.196.066.457.195.653.26 1.11.52 1.83 1.622 1.83 2.92Z" fill="#981B1E"/><path d="M22.692 15.526c-.066 2.724-5.748 9.73-8.23 11.286-.98.52-2.22.584-3.2.065-.85-.519-1.502-1.167-2.155-1.88-.523-.52-.458-1.298.065-1.817.914-.843 1.763-1.687 2.547-2.595 1.437-1.686 2.743-3.502 3.788-5.448.98-1.557.262-3.827-1.371-4.606.98.39 2.024.714 3.004 1.038 2.482.714 5.486.714 5.552 3.957Z" fill="url('#paint1_linear_7_14621')"/><defs><linearGradient id="paint0_linear_7_14621" x1="15.871" y1="12.29" x2="-5.92" y2="-36.833" gradientUnits="userSpaceOnUse"><stop stop-color="#EA1D25"/><stop offset="1" stop-color="#981B1E"/></linearGradient><linearGradient id="paint1_linear_7_14621" x1="17.483" y1="15.466" x2="10.027" y2="35.092" gradientUnits="userSpaceOnUse"><stop stop-color="#EA1D25"/><stop offset="1" stop-color="#981B1E"/></linearGradient></defs></svg>