<svg width="26" height="26" fill="none" xmlns="http://www.w3.org/2000/svg"><rect width="26" height="26" rx="13" fill="#E6EBEE"/><path d="M13 22a8.775 8.775 0 0 1-3.517-.71A9.077 9.077 0 0 1 6.63 19.37a9.076 9.076 0 0 1-1.918-2.854A8.775 8.775 0 0 1 4 13c0-1.247.237-2.42.71-3.518A9.079 9.079 0 0 1 6.63 6.63 9.076 9.076 0 0 1 9.483 4.71 8.775 8.775 0 0 1 13 4c1.247 0 2.42.237 3.518.71A9.08 9.08 0 0 1 19.37 6.63a9.08 9.08 0 0 1 1.919 2.853c.473 1.098.71 2.27.71 3.518 0 1.247-.237 2.42-.71 3.517a9.078 9.078 0 0 1-1.919 2.854 9.081 9.081 0 0 1-2.853 1.919A8.782 8.782 0 0 1 13 22Zm-.947-1.468v-1.848c-.521 0-.967-.185-1.338-.556a1.826 1.826 0 0 1-.557-1.338v-.948L5.61 11.295c-.048.284-.091.568-.131.852A6.24 6.24 0 0 0 5.42 13c0 1.91.628 3.584 1.883 5.021 1.255 1.437 2.838 2.274 4.749 2.51Zm6.537-2.416c.315-.348.6-.723.852-1.126.253-.402.462-.82.628-1.255.166-.434.292-.88.38-1.338.086-.457.129-.923.129-1.397 0-1.547-.43-2.965-1.29-4.252a7.277 7.277 0 0 0-3.447-2.782v.402c0 .521-.185.967-.556 1.338a1.825 1.825 0 0 1-1.339.557h-1.894v1.895c0 .268-.091.493-.272.674a.917.917 0 0 1-.676.273H9.211V13h5.684c.268 0 .493.09.675.272a.919.919 0 0 1 .272.675v2.843h.947c.411 0 .782.122 1.114.366.331.245.56.565.687.96Z" fill="#16103E"/></svg>