<svg width="20" height="20" fill="none" xmlns="http://www.w3.org/2000/svg"><g clip-path="url('#clip0_12_5306')"><path fill="#FF2936" d="M-3 .318h27.8v19.857H-3z"/><path fill-rule="evenodd" clip-rule="evenodd" d="M-3 20.175H7.59V.319H-3v19.857Z" fill="#128415"/><path d="M7.589 13.556a3.31 3.31 0 1 0 0-6.619 3.31 3.31 0 0 0 0 6.62Z" stroke="#FAF94F" stroke-width="1.324"/><path fill-rule="evenodd" clip-rule="evenodd" d="M6.266 8.592c0-.183.148-.33.33-.33h1.986a.33.33 0 0 1 .331.33v2.317a1.324 1.324 0 1 1-2.647 0V8.592Z" fill="#fff"/><path fill-rule="evenodd" clip-rule="evenodd" d="M7.592 10.909c.365 0 .662-.959.662-1.324a.662.662 0 0 0-1.324 0c0 .365.296 1.324.662 1.324Z" fill="#1D50B5"/></g><rect x=".75" y="1.068" width="18.5" height="18.5" rx="9.25" stroke="#F3F3F3" stroke-width=".5"/><defs><clipPath id="clip0_12_5306"><rect x="1" y="1.318" width="18" height="18" rx="9" fill="#fff"/></clipPath></defs></svg>