<svg width="20" height="20" fill="none" xmlns="http://www.w3.org/2000/svg"><g clip-path="url('#clip0_12_5314')"><rect x="-2.602" y=".534" width="25.2" height="18" rx="1.8" fill="#fff"/><mask id="mask0_12_5314" style="mask-type:luminance" maskUnits="userSpaceOnUse" x="-3" y="0" width="26" height="19"><rect x="-2.602" y=".534" width="25.2" height="18" rx="1.8" fill="#fff"/></mask><g mask="url('#mask0_12_5314')"><path fill="#05AB41" d="M-2.602.534h25.2v18h-25.2z"/><path fill-rule="evenodd" clip-rule="evenodd" d="M2.98 9.855a.442.442 0 0 1 0-.743l6.702-4.336a.442.442 0 0 1 .48 0l6.703 4.336c.27.175.27.569 0 .743l-6.702 4.337a.442.442 0 0 1-.48 0L2.98 9.855Z" fill="#FDD216"/><path fill-rule="evenodd" clip-rule="evenodd" d="M9.923 12.579a3.095 3.095 0 1 0 0-6.19 3.095 3.095 0 0 0 0 6.19Z" fill="#053087"/><mask id="mask1_12_5314" style="mask-type:luminance" maskUnits="userSpaceOnUse" x="6" y="6" width="8" height="7"><path fill-rule="evenodd" clip-rule="evenodd" d="M9.923 12.579a3.095 3.095 0 1 0 0-6.19 3.095 3.095 0 0 0 0 6.19Z" fill="#fff"/></mask><g mask="url('#mask1_12_5314')"><path d="M6.461 8.675c.486-.394 2.054-.02 3.518.37s2.99 1.208 3.38 1.688" stroke="#fff" stroke-width=".884" stroke-linecap="square"/></g></g></g><rect x=".75" y=".284" width="18.5" height="18.5" rx="9.25" stroke="#F3F3F3" stroke-width=".5"/><defs><clipPath id="clip0_12_5314"><rect x="1" y=".534" width="18" height="18" rx="9" fill="#fff"/></clipPath></defs></svg>