<svg width="30" height="30" fill="none" xmlns="http://www.w3.org/2000/svg"><g opacity=".7" fill="#16103E"><circle cx="15" cy="15" r="15" fill-opacity=".1"/><path d="M19 11a5.617 5.617 0 0 1 1.573 5.033 3.333 3.333 0 0 1-4.54 4.54A5.617 5.617 0 0 1 11 19a5.618 5.618 0 0 1-1.573-5.033 3.333 3.333 0 0 1 4.54-4.54A5.618 5.618 0 0 1 19 11Zm-3.973 7.44c1.913 0 2.866-.92 2.866-2.16 0-.793-.373-1.64-1.82-1.967l-1.326-.293c-.507-.113-1.08-.267-1.08-.74 0-.48.4-.813 1.133-.813 1.487 0 1.347 1.02 2.087 1.02.386 0 .72-.227.72-.62 0-.914-1.46-1.6-2.7-1.6-1.34 0-2.774.573-2.774 2.093 0 .733.26 1.513 1.7 1.873l1.794.454c.54.133.673.433.673.713 0 .453-.453.9-1.273.9-1.607 0-1.387-1.233-2.247-1.233-.387 0-.667.266-.667.646 0 .74.887 1.727 2.914 1.727Z"/></g></svg>