<svg width="20" height="20" fill="none" xmlns="http://www.w3.org/2000/svg"><g clip-path="url('#clip0_12_5298')"><path fill="#E92434" d="M1 1.102h18v18H1z"/><path fill-rule="evenodd" clip-rule="evenodd" d="m12.234 10.545-.82.996.055-1.29-1.2-.473 1.243-.345.08-1.288.712 1.076 1.249-.323-.803 1.01.693 1.089-1.209-.452Z" fill="#fff"/><path fill-rule="evenodd" clip-rule="evenodd" d="M11.148 12.502a4.022 4.022 0 1 1 0-4.944 3.492 3.492 0 0 0-2.055-.656c-1.85 0-3.351 1.4-3.351 3.128 0 1.728 1.5 3.129 3.351 3.129.775 0 1.487-.245 2.055-.657Z" fill="#fff"/></g><rect x=".75" y=".852" width="18.5" height="18.5" rx="9.25" stroke="#F3F3F3" stroke-width=".5"/><defs><clipPath id="clip0_12_5298"><rect x="1" y="1.102" width="18" height="18" rx="9" fill="#fff"/></clipPath></defs></svg>