<svg width="20" height="20" fill="none" xmlns="http://www.w3.org/2000/svg"><g clip-path="url('#clip0_12_5224')"><mask id="mask0_12_5224" style="mask-type:luminance" maskUnits="userSpaceOnUse" x="1" y="0" width="18" height="19"><rect x="1.225" y=".895" width="17.55" height="17.55" rx="1.575" fill="#fff" stroke="#fff" stroke-width=".45"/></mask><g mask="url('#mask0_12_5224')"><rect x="-3" y=".67" width="25.2" height="18" rx="1.8" fill="#fff"/><mask id="mask1_12_5224" style="mask-type:luminance" maskUnits="userSpaceOnUse" x="-3" y="0" width="26" height="19"><rect x="-3" y=".67" width="25.2" height="18" rx="1.8" fill="#fff"/></mask><g mask="url('#mask1_12_5224')"><path fill="#EA403F" d="M-3 .67h25.2v18H-3z"/><path fill-rule="evenodd" clip-rule="evenodd" d="m10 11.62-2.94 2.095 1.085-3.442-2.9-2.147 3.608-.033L10 4.671l1.146 3.422 3.608.033-2.9 2.147 1.084 3.442L10 11.62Z" fill="#FFFE4E"/></g></g></g><rect x=".75" y=".42" width="18.5" height="18.5" rx="9.25" stroke="#F3F3F3" stroke-width=".5"/><defs><clipPath id="clip0_12_5224"><rect x="1" y=".67" width="18" height="18" rx="9" fill="#fff"/></clipPath></defs></svg>