<svg width="21" height="20" viewBox="0 0 21 20" fill="none" xmlns="http://www.w3.org/2000/svg">
    <path fill-rule="evenodd" clip-rule="evenodd" d="M8.7675 1.66667C7.10989 1.66667 5.52018 2.32515 4.34808 3.49725C3.17598 4.66935 2.5175 6.25906 2.5175 7.91667C2.5175 9.57427 3.17598 11.164 4.34808 12.3361C5.52018 13.5082 7.10989 14.1667 8.7675 14.1667C10.4251 14.1667 12.0148 13.5082 13.1869 12.3361C14.359 11.164 15.0175 9.57427 15.0175 7.91667C15.0175 6.25906 14.359 4.66935 13.1869 3.49725C12.0148 2.32515 10.4251 1.66667 8.7675 1.66667ZM3.16957 2.31874C4.65423 0.834075 6.66787 0 8.7675 0C10.8671 0 12.8808 0.834075 14.3654 2.31874C15.8501 3.8034 16.6842 5.81704 16.6842 7.91667C16.6842 9.73529 16.0584 11.4894 14.9261 12.8911L20.6073 18.5779L19.4277 19.7554L13.7482 14.0702C12.3455 15.2057 10.5888 15.8333 8.7675 15.8333C6.66787 15.8333 4.65423 14.9993 3.16957 13.5146C1.68491 12.0299 0.85083 10.0163 0.85083 7.91667C0.85083 5.81704 1.68491 3.8034 3.16957 2.31874Z" fill="#16103E"/>
</svg>
