<svg width="26" height="26" fill="none" xmlns="http://www.w3.org/2000/svg"><g clip-path="url('#clip0_8_8895')"><rect width="26" height="26" rx="13" fill="#DADADA"/><rect x="-5.2" width="36.4" height="26" rx="2.6" fill="#fff"/><mask id="mask0_8_8895" style="mask-type:luminance" maskUnits="userSpaceOnUse" x="-6" y="0" width="38" height="26"><rect x="-5.2" width="36.4" height="26" rx="2.6" fill="#fff"/></mask><g mask="url('#mask0_8_8895')"><path fill="#0A17A7" d="M-5.2 0h36.4v26H-5.2z"/><path fill-rule="evenodd" clip-rule="evenodd" d="M3.472 17.333-8.81 25.616l1.939 2.874L8.66 18.014v9.719h8.666V18.01l15.539 10.48 1.938-2.873-12.281-8.284h8.67V8.666H22.52L34.8.382l-1.938-2.874L17.327 7.987v-9.721H8.661v9.716L-6.87-2.492-8.806.382 3.475 8.666h-8.68v8.667h8.677Z" fill="#fff"/><path d="M19.07 8.232 35.535-2.6M20.815 17.807l14.76 9.949M5.209 8.203-10.187-2.172M6.878 17.686l-17.065 11.317" stroke="#DB1F35" stroke-width=".867" stroke-linecap="round"/><path fill-rule="evenodd" clip-rule="evenodd" d="M-5.2 15.6h15.6V26h5.2V15.6h15.6v-5.2H15.6V0h-5.2v10.4H-5.2v5.2Z" fill="#E6273E"/></g></g><defs><clipPath id="clip0_8_8895"><rect width="26" height="26" rx="13" fill="#fff"/></clipPath></defs></svg>