<svg width="31" height="30" fill="none" xmlns="http://www.w3.org/2000/svg"><path d="M15.4 11.095A3.914 3.914 0 0 0 11.496 15a3.914 3.914 0 0 0 3.906 3.905A3.913 3.913 0 0 0 19.306 15a3.913 3.913 0 0 0-3.905-3.905ZM27.115 15c0-1.617.014-3.22-.076-4.834-.091-1.875-.52-3.54-1.89-4.91-1.374-1.374-3.035-1.8-4.91-1.89-1.617-.09-3.22-.076-4.834-.076-1.617 0-3.22-.015-4.834.076-1.875.09-3.54.519-4.91 1.89-1.374 1.374-1.8 3.035-1.89 4.91-.09 1.617-.076 3.22-.076 4.834 0 1.614-.015 3.22.076 4.834.09 1.875.518 3.539 1.89 4.91 1.374 1.374 3.035 1.799 4.91 1.89 1.617.09 3.22.076 4.834.076 1.617 0 3.22.014 4.834-.076 1.875-.091 3.539-.519 4.91-1.89 1.374-1.374 1.799-3.035 1.89-4.91.093-1.614.076-3.217.076-4.834ZM15.4 21.009a6 6 0 0 1-6.009-6.01 6 6 0 0 1 6.009-6.008A6 6 0 0 1 21.41 15a6 6 0 0 1-6.01 6.009Zm6.255-10.86a1.402 1.402 0 0 1-1.404-1.404c0-.776.627-1.403 1.404-1.403a1.402 1.402 0 0 1 .992 2.396 1.403 1.403 0 0 1-.992.41Z" fill="#16103E" opacity=".5"/></svg>