<svg width="20" height="20" fill="none" xmlns="http://www.w3.org/2000/svg"><g clip-path="url('#clip0_12_5325')"><mask id="mask0_12_5325" style="mask-type:luminance" maskUnits="userSpaceOnUse" x="1" y="1" width="18" height="19"><rect x="1.225" y="1.543" width="17.55" height="17.55" rx="1.575" fill="#fff" stroke="#fff" stroke-width=".45"/></mask><g mask="url('#mask0_12_5325')"><path fill-rule="evenodd" clip-rule="evenodd" d="M10.083 13.694a3.466 3.466 0 1 0 0-6.932 3.466 3.466 0 0 0 0 6.932Z" fill="#E01B41"/><mask id="mask1_12_5325" style="mask-type:luminance" maskUnits="userSpaceOnUse" x="6" y="6" width="8" height="8"><path fill-rule="evenodd" clip-rule="evenodd" d="M10.083 13.694a3.466 3.466 0 1 0 0-6.932 3.466 3.466 0 0 0 0 6.932Z" fill="#fff"/></mask><g mask="url('#mask1_12_5325')"><path fill-rule="evenodd" clip-rule="evenodd" d="M6.616 10.723c.99.928 2.475 1.485 3.466 0 .99-1.485 2.97-1.485 3.466 0 .495 1.485 0 2.97 0 2.97H6.616s-.99-3.898 0-2.97Z" fill="#0E4B9C"/></g><path opacity=".75" fill-rule="evenodd" clip-rule="evenodd" d="M4.27 5.442a.248.248 0 0 1 .339-.09l.429.247c.118.069.159.22.09.338L3.89 8.081a.248.248 0 0 1-.338.091l-.429-.248a.248.248 0 0 1-.09-.338L4.27 5.442Zm10.858.158a.248.248 0 0 0-.09.338l1.238 2.144c.068.118.22.159.338.09l.429-.247a.248.248 0 0 0 .09-.338l-1.237-2.144a.248.248 0 0 0-.339-.091l-.429.248Zm-1.285.742a.248.248 0 0 0-.09.338l1.238 2.145c.068.118.22.159.338.09l.429-.247a.248.248 0 0 0 .09-.339L14.61 6.185a.248.248 0 0 0-.338-.09l-.429.247ZM3.033 12.87a.248.248 0 0 1 .092-.338l.428-.248a.248.248 0 0 1 .339.09l1.237 2.145a.248.248 0 0 1-.09.338l-.429.248a.248.248 0 0 1-.338-.091L3.034 12.87Zm1.377-1.08a.247.247 0 0 0-.09.337l1.237 2.144c.068.119.22.16.338.09l.429-.247a.248.248 0 0 0 .09-.338l-1.237-2.144a.248.248 0 0 0-.338-.09l-.43.247Zm10.58-.158a.248.248 0 0 1 .338-.09l.429.247c.118.069.159.22.09.338l-1.238 2.144a.248.248 0 0 1-.338.091l-.429-.248a.248.248 0 0 1-.09-.338l1.237-2.144Zm1.627.652a.248.248 0 0 0-.338.09L15.04 14.52a.248.248 0 0 0 .09.338l.43.248c.117.068.269.027.337-.091l1.238-2.144a.248.248 0 0 0-.09-.338l-.43-.248ZM5.894 6.094a.248.248 0 0 0-.338.09L4.318 8.33a.248.248 0 0 0 .09.338l.43.248c.118.068.27.027.338-.09L6.413 6.68a.248.248 0 0 0-.09-.338l-.429-.248Z" fill="#262626"/></g></g><rect x=".75" y="1.068" width="18.5" height="18.5" rx="9.25" stroke="#F3F3F3" stroke-width=".5"/><defs><clipPath id="clip0_12_5325"><rect x="1" y="1.318" width="18" height="18" rx="9" fill="#fff"/></clipPath></defs></svg>