<svg width="20" height="20" fill="none" xmlns="http://www.w3.org/2000/svg"><g clip-path="url('#clip0_12_5233')"><mask id="mask0_12_5233" style="mask-type:luminance" maskUnits="userSpaceOnUse" x="1" y="0" width="18" height="19"><rect x="1.225" y="1.111" width="17.55" height="17.55" rx="1.575" fill="#fff" stroke="#fff" stroke-width=".45"/></mask><g mask="url('#mask0_12_5233')"><path fill-rule="evenodd" clip-rule="evenodd" d="M1 12.886h25.2v-6H1v6Z" fill="#17508F"/><path fill-rule="evenodd" clip-rule="evenodd" d="M1 6.886h25.2v-6H1v6Z" fill="#E1444D"/><path fill-rule="evenodd" clip-rule="evenodd" d="M6.402 9.286c0-.58.31-1.874.484-2.557a.59.59 0 0 1 .574-.443h2.686c.27 0 .506.18.573.442.175.679.483 1.964.483 2.558 0 .67-.45 2.43-.57 2.89a.515.515 0 0 1-.101.2c-.23.278-.98 1.11-1.729 1.11-.75 0-1.5-.833-1.729-1.11a.517.517 0 0 1-.1-.2c-.12-.455-.57-2.203-.57-2.89Z" fill="#fff"/><mask id="mask1_12_5233" style="mask-type:luminance" maskUnits="userSpaceOnUse" x="6" y="6" width="6" height="8"><path fill-rule="evenodd" clip-rule="evenodd" d="M6.402 9.286c0-.58.31-1.874.484-2.557a.59.59 0 0 1 .574-.443h2.686c.27 0 .506.18.573.442.175.679.483 1.964.483 2.558 0 .67-.45 2.43-.57 2.89a.515.515 0 0 1-.101.2c-.23.278-.98 1.11-1.729 1.11-.75 0-1.5-.833-1.729-1.11a.517.517 0 0 1-.1-.2c-.12-.455-.57-2.203-.57-2.89Z" fill="#fff"/></mask><g mask="url('#mask1_12_5233')" stroke="#E1444D" stroke-width="1.2" stroke-linecap="square"><path d="m11.2 6.886-4.8 6M6.4 6.886l4.8 6"/></g></g></g><rect x=".75" y=".636" width="18.5" height="18.5" rx="9.25" stroke="#F3F3F3" stroke-width=".5"/><defs><clipPath id="clip0_12_5233"><rect x="1" y=".886" width="18" height="18" rx="9" fill="#fff"/></clipPath></defs></svg>