<svg width="31" height="30" fill="none" xmlns="http://www.w3.org/2000/svg"><path d="M28.276 7.5c-.963.438-2 .725-3.075.863a5.373 5.373 0 0 0 2.35-2.975 10.801 10.801 0 0 1-3.4 1.312C23.163 5.625 21.776 5 20.2 5c-2.938 0-5.338 2.4-5.338 5.363 0 .425.05.837.138 1.225a15.243 15.243 0 0 1-11.05-5.6 5.305 5.305 0 0 0-.725 2.687c0 1.862.937 3.512 2.387 4.45-.887 0-1.712-.25-2.437-.625v.037c0 2.6 1.85 4.775 4.3 5.263a5.275 5.275 0 0 1-2.413.087 5.35 5.35 0 0 0 5 3.726 10.652 10.652 0 0 1-6.662 2.3c-.425 0-.85-.026-1.275-.076a15.18 15.18 0 0 0 8.225 2.413c9.85 0 15.262-8.175 15.262-15.262 0-.238 0-.463-.012-.7 1.05-.75 1.95-1.7 2.675-2.788Z" fill="#16103E" opacity=".5"/></svg>